<svg xmlns="http://www.w3.org/2000/svg" width="512" height="512" viewBox="0 0 512 512" version="1.1"><path d="M 218.250 228.750 C 248.913 228.897, 299.087 228.897, 329.750 228.750 C 360.413 228.603, 335.325 228.483, 274 228.483 C 212.675 228.483, 187.587 228.603, 218.250 228.750" stroke="none" fill="#34342c" fill-rule="evenodd"/><path d="M 216 0.679 C 206.211 1.682, 186.920 5.428, 175.702 8.502 C 126.283 22.048, 81.965 51.813, 49.918 92.981 C 26.028 123.672, 9.946 160.475, 2.935 200.500 C 0.213 216.040, -0.788 248.125, 0.950 264.163 C 5 301.557, 19.301 342.113, 38.697 371.204 C 55.431 396.305, 78.738 420.369, 102.500 437.082 C 126.793 454.168, 162.604 469.565, 190.500 474.917 C 196.550 476.077, 202.441 477.206, 203.591 477.426 C 219.715 480.498, 257.506 480.550, 276.448 477.526 C 326.411 469.551, 370.753 447.530, 406.369 413.005 C 445.320 375.249, 468.890 330.042, 477.544 276.500 C 479.738 262.925, 480.563 230.085, 479.069 215.812 C 472.480 152.883, 443.498 98.064, 394.500 55.847 C 361.250 27.199, 316.029 7.430, 270.330 1.562 C 259.241 0.139, 226.467 -0.394, 216 0.679 M 211.500 24.486 C 156.035 32.457, 108.261 59.077, 72.385 102 C 45.720 133.903, 28.954 173.789, 23.950 217.225 C 22.404 230.647, 23.228 260.611, 25.526 274.500 C 33.051 319.997, 55.365 363.361, 86.933 393.840 C 121.699 427.407, 160.462 447.135, 206.500 454.691 C 221.621 457.173, 259.047 457.167, 273.500 454.680 C 319.718 446.727, 358.789 427.090, 391.564 395.342 C 405.973 381.384, 415.810 368.955, 426.379 351.351 C 464.825 287.317, 467.388 208.778, 433.259 140.500 C 425.064 124.105, 401.351 92.285, 390.790 83.512 C 388.981 82.009, 385.475 78.896, 383 76.594 C 356.658 52.098, 315.256 32.390, 275.442 25.395 C 263.393 23.278, 223.818 22.715, 211.500 24.486 M 232.500 126.903 C 230.850 127.946, 205.650 152.696, 176.500 181.903 L 123.500 235.007 123.500 240 L 123.500 244.993 177 298.561 C 206.425 328.024, 231.792 352.815, 233.371 353.653 C 237.291 355.733, 242.190 354.656, 245.961 350.885 C 248.474 348.372, 249 347.042, 249 343.200 L 249 338.554 205.786 295.298 L 162.573 252.042 275.536 251.771 C 385.735 251.507, 388.571 251.452, 391.386 249.546 C 398.050 245.034, 398.173 234.780, 391.615 230.483 C 389.580 229.150, 375.622 228.970, 276.150 228.991 C 213.918 229.005, 163 228.682, 163 228.273 C 163 227.865, 182.350 208.162, 206 184.489 C 247.463 142.985, 249 141.312, 249 137.674 C 249 132.738, 246.682 128.404, 243.033 126.517 C 239.131 124.499, 236.130 124.609, 232.500 126.903" stroke="none" fill="#343c2c" fill-rule="evenodd"/></svg>