<svg xmlns="http://www.w3.org/2000/svg" width="512" height="512" viewBox="0 0 512 512" version="1.1"><path d="" stroke="none" fill="#34342c" fill-rule="evenodd"/><path d="M 231.500 0.593 C 200.573 4.738, 184.069 8.766, 161.500 17.677 C 136.081 27.713, 110.737 42.910, 90 60.550 C 72.364 75.552, 50.690 100.717, 38.149 120.752 C 25.880 140.353, 13.363 169.871, 7.481 193.076 C 1.793 215.512, 0.598 226.420, 0.585 256 C 0.572 286.229, 1.691 296.033, 7.915 320.169 C 13.991 343.735, 25.830 371.542, 38.219 391.343 C 61.598 428.712, 97.279 462.052, 135.219 481.980 C 161.957 496.023, 185.377 503.876, 216.500 509.234 C 227.722 511.165, 233.124 511.472, 256 511.479 C 285.362 511.487, 293.403 510.582, 318 504.497 C 389.870 486.718, 451.944 437.272, 484.337 372 C 492.430 355.694, 494.469 350.833, 499.047 336.941 C 505.257 318.092, 511 290.823, 511 280.181 C 511 278.496, 511.417 276.860, 511.926 276.546 C 513.246 275.730, 513.350 236, 512.032 236 C 511.464 236, 511 234.370, 511 232.378 C 511 226.792, 508.133 208.649, 505.409 197 C 497.277 162.217, 478.794 124.243, 456.133 95.756 C 422.778 53.825, 373.954 22.212, 320.571 7.980 C 300.058 2.511, 286.051 0.806, 259 0.483 C 245.525 0.323, 233.150 0.372, 231.500 0.593 M 241 26.002 C 204.591 28.218, 167.782 39.916, 135.235 59.615 C 126.604 64.839, 126.306 65.053, 113 75.586 C 91.809 92.360, 70.619 116.342, 58.294 137.500 C 42.412 164.764, 31.954 193.874, 28.061 221.652 C 27.533 225.419, 26.783 230.750, 26.394 233.500 C 26.005 236.250, 25.711 246.825, 25.741 257 C 26.001 344.767, 75.502 423.801, 154.500 462.577 C 187.927 478.985, 219.197 486.229, 256.500 486.208 C 300.349 486.182, 340.575 474.739, 377.198 451.871 C 459.606 400.414, 500.600 305.662, 481.836 210.014 C 468.418 141.616, 421.645 80.870, 358.307 49.579 C 321.708 31.499, 281.954 23.509, 241 26.002 M 289.822 134.410 C 287.092 135.378, 272.303 149.486, 232.479 189.107 C 202.476 218.957, 177.667 244.447, 176.214 246.916 C 172.707 252.876, 172.710 259.134, 176.223 265.084 C 177.667 267.529, 202.745 293.319, 232.412 322.867 C 272.389 362.684, 286.915 376.550, 289.626 377.482 C 299.884 381.009, 308.971 371.773, 305.416 361.433 C 304.397 358.468, 292.682 346.188, 253.309 306.809 L 202.517 256.010 253.147 205.255 C 280.993 177.340, 304.305 153.464, 304.952 152.197 C 306.702 148.767, 306.467 142.642, 304.467 139.591 C 301.271 134.713, 295.110 132.533, 289.822 134.410 M 0.417 255.500 C 0.418 265.950, 0.566 270.089, 0.746 264.698 C 0.926 259.307, 0.925 250.757, 0.744 245.698 C 0.563 240.639, 0.416 245.050, 0.417 255.500" stroke="none" fill="#343c2c" fill-rule="evenodd"/></svg>