<svg xmlns="http://www.w3.org/2000/svg" width="512" height="512" viewBox="0 0 512 512" version="1.1"><path d="M 424.500 218 C 426.648 220.200, 428.631 222, 428.906 222 C 429.181 222, 427.648 220.200, 425.500 218 C 423.352 215.800, 421.369 214, 421.094 214 C 420.819 214, 422.352 215.800, 424.500 218 M 424.453 294.250 L 420.500 298.500 424.750 294.547 C 428.702 290.871, 429.460 290, 428.703 290 C 428.540 290, 426.627 291.913, 424.453 294.250" stroke="none" fill="#383c2c" fill-rule="evenodd"/><path d="M 378.500 134.170 C 368.858 139.186, 365.326 148.288, 368.984 158.695 C 370.830 163.947, 373.395 166.741, 407.054 200.163 L 443.144 236 229.822 236.115 C 112.495 236.179, 16.050 236.335, 15.500 236.463 C 14.950 236.591, 13.787 236.764, 12.916 236.848 C 10.729 237.058, 3.600 243.857, 1.746 247.500 C 0.015 250.903, -0.204 259.261, 1.341 263 C 3.328 267.810, 6.981 271.813, 11.289 273.898 L 15.631 276 229.359 276 L 443.086 276 407.043 311.847 C 387.219 331.563, 371 348.213, 371 348.847 C 371 349.481, 370.582 350, 370.071 350 C 368.765 350, 366.891 359.911, 367.543 363.371 C 368.785 369.972, 374.995 377.736, 379.570 378.407 C 380.325 378.518, 381.255 378.922, 381.638 379.304 C 383.126 380.793, 391.775 379.927, 396.048 377.863 C 399.202 376.339, 415.913 360.309, 454.291 321.995 C 503.125 273.242, 513.131 262.464, 511.276 260.610 C 510.941 260.274, 511.126 260, 511.687 260 C 512.252 260, 512.727 257.557, 512.751 254.534 C 512.779 250.946, 512.400 249.143, 511.647 249.284 C 511.016 249.403, 510.627 248.895, 510.782 248.155 C 511.215 246.085, 399.982 135.308, 395.655 133.500 C 390.609 131.392, 383.290 131.677, 378.500 134.170 M 0.232 256 C 0.232 257.925, 0.438 258.712, 0.689 257.750 C 0.941 256.788, 0.941 255.213, 0.689 254.250 C 0.438 253.287, 0.232 254.075, 0.232 256" stroke="none" fill="#343c2c" fill-rule="evenodd"/></svg>