<svg xmlns="http://www.w3.org/2000/svg" width="512" height="512" viewBox="0 0 512 512" version="1.1"><path d="" stroke="none" fill="#34342c" fill-rule="evenodd"/><path d="M 116 133.583 C 111.554 135.494, 4.646 241.987, 1.929 247.210 C -0.599 252.071, -0.600 259.924, 1.926 264.790 C 2.989 266.837, 28.424 292.987, 58.676 323.133 C 118.163 382.413, 116.059 380.657, 126.552 379.787 C 133.984 379.171, 139.448 375.383, 142.566 368.686 C 145.273 362.872, 145.543 359.621, 143.817 353.616 C 142.817 350.138, 136.982 343.838, 106.200 313 L 69.767 276.500 284.633 276 L 499.500 275.500 502.500 273.358 C 509.427 268.412, 513 261.964, 513 254.411 C 513 250.979, 512.621 249.116, 512 249.500 C 511.450 249.840, 511 249.519, 511 248.787 C 511 246.731, 505.185 240.158, 501.660 238.229 C 498.701 236.610, 484.864 236.468, 284.093 236 L 69.686 235.500 104.410 201 C 123.509 182.025, 140.206 164.700, 141.515 162.500 C 146.149 154.717, 145.705 146.463, 140.268 139.300 C 135.286 132.736, 124.100 130.101, 116 133.583 M 0.320 256 C 0.320 259.575, 0.502 261.038, 0.723 259.250 C 0.945 257.462, 0.945 254.537, 0.723 252.750 C 0.502 250.963, 0.320 252.425, 0.320 256" stroke="none" fill="#343c2c" fill-rule="evenodd"/></svg>